<svg width="17" height="31" viewBox="0 0 17 31" fill="none" xmlns="http://www.w3.org/2000/svg">
<path d="M14.5049 0.500977C14.7589 0.493722 15.012 0.537098 15.249 0.628906C15.486 0.720722 15.7022 0.85905 15.8857 1.03516C16.0693 1.21131 16.2165 1.42221 16.3193 1.65527C16.4221 1.88841 16.4792 2.13969 16.4863 2.39453C16.4934 2.64927 16.4509 2.90313 16.3613 3.1416C16.2717 3.38019 16.1363 3.59977 15.9629 3.78613L15.9619 3.78516L5.07227 15.4912L15.9629 27.2012H15.9619C16.1373 27.3858 16.2752 27.603 16.3672 27.8408C16.4599 28.0804 16.5055 28.3359 16.5 28.5928C16.4945 28.8498 16.4379 29.1035 16.335 29.3389C16.232 29.5744 16.0838 29.7881 15.8984 29.9658C15.7132 30.1434 15.4942 30.2824 15.2549 30.374C15.0154 30.4657 14.76 30.5083 14.5039 30.499C14.2477 30.4898 13.996 30.429 13.7637 30.3203C13.5334 30.2126 13.3276 30.0592 13.1562 29.8711L13.1553 29.8721L1.02441 16.8281C0.687108 16.4659 0.500083 15.9878 0.5 15.4922C0.5 14.9965 0.687032 14.5176 1.02441 14.1553L13.1553 1.11328C13.3286 0.927049 13.5373 0.777114 13.7686 0.671875C14.0001 0.566617 14.2508 0.508275 14.5049 0.500977Z" fill="#068CFF" stroke="#068CFF"/>
</svg>
