<svg width="17" height="31" viewBox="0 0 17 31" fill="none" xmlns="http://www.w3.org/2000/svg">
<path d="M2.49512 0.500977C2.24112 0.493722 1.98802 0.537098 1.75098 0.628906C1.51403 0.720722 1.29784 0.85905 1.11426 1.03516C0.930661 1.21131 0.783483 1.42221 0.680664 1.65527C0.577854 1.88841 0.52078 2.13969 0.513672 2.39453C0.506574 2.64927 0.549136 2.90313 0.638672 3.1416C0.728306 3.38019 0.863667 3.59977 1.03711 3.78613L1.03809 3.78516L11.9277 15.4912L1.03711 27.2012H1.03809C0.862702 27.3858 0.724831 27.603 0.632812 27.8408C0.540145 28.0804 0.494537 28.3359 0.5 28.5928C0.505513 28.8498 0.562129 29.1035 0.665039 29.3389C0.768035 29.5744 0.916249 29.7881 1.10156 29.9658C1.28682 30.1434 1.50575 30.2824 1.74512 30.374C1.98455 30.4657 2.23999 30.5083 2.49609 30.499C2.75227 30.4898 3.004 30.429 3.23633 30.3203C3.46661 30.2126 3.67236 30.0592 3.84375 29.8711L3.84473 29.8721L15.9756 16.8281C16.3129 16.4659 16.4999 15.9878 16.5 15.4922C16.5 14.9965 16.313 14.5176 15.9756 14.1553L3.84473 1.11328C3.6714 0.927049 3.46275 0.777114 3.23145 0.671875C2.99992 0.566617 2.74921 0.508275 2.49512 0.500977Z" fill="#068CFF" stroke="#068CFF"/>
</svg>
